HIERARCHY
ROOT Hips
{
	OFFSET -0.001795 -0.223333 0.028219
	CHANNELS 6 Xposition Yposition Zposition Zrotation Yrotation Xrotation
	JOINT LeftUpLeg
	{
		OFFSET 0.069520 -0.091406 -0.006815
		CHANNELS 3 Zrotation Yrotation Xrotation
		JOINT LeftLeg
		{
			OFFSET 0.034277 -0.375199 -0.004496
			CHANNELS 3 Zrotation Yrotation Xrotation
			JOINT LeftFoot
			{
				OFFSET -0.013596 -0.397961 -0.043693
				CHANNELS 3 Zrotation Yrotation Xrotation
				JOINT LeftToe
				{
					OFFSET 0.026358 -0.055791 0.119288
					CHANNELS 3 Zrotation Yrotation Xrotation
					End Site
					{
						OFFSET 0.000000 0.000000 0.000000
					}
				}
			}
		}
	}
	JOINT RightUpLeg
	{
		OFFSET -0.067670 -0.090522 -0.004320
		CHANNELS 3 Zrotation Yrotation Xrotation
		JOINT RightLeg
		{
			OFFSET -0.038290 -0.382569 -0.008850
			CHANNELS 3 Zrotation Yrotation Xrotation
			JOINT RightFoot
			{
				OFFSET 0.015774 -0.398415 -0.042312
				CHANNELS 3 Zrotation Yrotation Xrotation
				JOINT RightToe
				{
					OFFSET -0.025372 -0.048144 0.123348
					CHANNELS 3 Zrotation Yrotation Xrotation
					End Site
					{
						OFFSET 0.000000 0.000000 0.000000
					}
				}
			}
		}
	}
	JOINT Spine
	{
		OFFSET -0.002533 0.108963 -0.026696
		CHANNELS 3 Zrotation Yrotation Xrotation
		JOINT Spine1
		{
			OFFSET 0.005487 0.135180 0.001092
			CHANNELS 3 Zrotation Yrotation Xrotation
			JOINT Spine2
			{
				OFFSET 0.001457 0.052922 0.025425
				CHANNELS 3 Zrotation Yrotation Xrotation
				JOINT Neck
				{
					OFFSET -0.002778 0.213870 -0.042857
					CHANNELS 3 Zrotation Yrotation Xrotation
					JOINT Head
					{
						OFFSET 0.005152 0.064970 0.051349
						CHANNELS 3 Zrotation Yrotation Xrotation
						End Site
						{
							OFFSET 0.000000 0.000000 0.000000
						}
					}
				}
				JOINT LeftShoulder
				{
					OFFSET 0.078845 0.121749 -0.034090
					CHANNELS 3 Zrotation Yrotation Xrotation
					JOINT LeftArm
					{
						OFFSET 0.090977 0.030469 -0.008868
						CHANNELS 3 Zrotation Yrotation Xrotation
						JOINT LeftForeArm
						{
							OFFSET 0.259612 -0.012772 -0.027456
							CHANNELS 3 Zrotation Yrotation Xrotation
							JOINT LeftHand
							{
								OFFSET 0.249234 0.008986 -0.001171
								CHANNELS 3 Zrotation Yrotation Xrotation
								End Site
								{
									OFFSET 0.000000 0.000000 0.000000
								}
							}
						}
					}
				}
				JOINT RightShoulder
				{
					OFFSET -0.081759 0.118833 -0.038615
					CHANNELS 3 Zrotation Yrotation Xrotation
					JOINT RightArm
					{
						OFFSET -0.096012 0.032551 -0.009143
						CHANNELS 3 Zrotation Yrotation Xrotation
						JOINT RightForeArm
						{
							OFFSET -0.253742 -0.013329 -0.021401
							CHANNELS 3 Zrotation Yrotation Xrotation
							JOINT RightHand
							{
								OFFSET -0.255298 0.007772 -0.005559
								CHANNELS 3 Zrotation Yrotation Xrotation
								End Site
								{
									OFFSET 0.000000 0.000000 0.000000
								}
							}
						}
					}
				}
			}
		}
	}
}
MOTION
Frames: 7
Frame Time: 0.050000
0.000000 0.919860 0.000000 -3.806069 0.730925 -1.097430 10.930964 -0.138021 -0.668487 -6.808748 0.906235 6.996208 6.914852 14.472173 1.525587 0.000000 0.000000 0.000000 -6.174980 0.422461 -6.540913 6.162359 -0.860236 11.490215 -5.044318 -14.283612 11.551057 0.000000 0.000000 0.000000 -2.676570 -0.052712 3.476778 8.330594 -1.344001 -24.922599 -1.917400 -2.872991 24.898095 2.825030 -1.114073 -18.797544 0.000000 0.000000 0.000000 -16.844550 -9.921940 4.799911 -51.623841 -38.493059 8.799891 177.098990 -82.508666 -166.754318 0.000000 0.000000 0.000000 6.953932 11.692025 4.311954 44.136875 25.891459 2.721654 -78.905110 50.763416 -37.426325 0.000000 0.000000 0.000000
-0.000977 0.920821 -0.000164 -4.488877 -0.169922 -0.542520 11.947479 -0.136734 -0.056294 -7.335782 0.962318 5.148009 7.184413 15.086588 2.083552 0.000000 0.000000 0.000000 -5.698419 0.450212 -6.305688 6.708632 -0.905534 9.677545 -4.544787 -13.500304 11.900898 0.000000 0.000000 0.000000 -3.311970 -0.010640 2.424242 9.313964 -1.515599 -25.579316 -1.269814 -3.138478 25.319040 3.674357 -1.996526 -17.055657 0.000000 0.000000 0.000000 -17.549865 -9.588089 4.924922 -50.872493 -38.930637 8.699654 -175.288088 -83.568843 -174.954817 0.000000 0.000000 0.000000 5.880652 12.544788 4.522066 46.287539 24.457611 2.381997 -78.371012 51.171388 -37.668382 0.000000 0.000000 0.000000
-0.001246 0.920171 -0.000067 -4.311083 -1.920569 -0.990666 11.548927 -0.063390 0.605889 -7.252670 1.009172 5.614333 7.883537 16.478955 2.223170 0.000000 0.000000 0.000000 -6.046124 0.464382 -6.445221 6.877455 -0.893231 10.380925 -3.791546 -12.197598 11.309877 0.000000 0.000000 0.000000 -2.433555 -0.033709 2.221801 9.458877 -1.563065 -25.694828 -1.680182 -0.788145 26.052103 4.757202 -2.361443 -18.941294 0.000000 0.000000 0.000000 -18.603686 -9.711039 4.779670 -48.275744 -37.665193 7.311946 -169.470970 -80.232433 177.444472 0.000000 0.000000 0.000000 7.180901 10.836979 4.014657 45.986597 24.932763 2.466389 -79.707055 51.385815 -38.101887 0.000000 0.000000 0.000000
-0.001470 0.920522 0.000181 -4.801123 -2.298934 -0.777776 11.916397 -0.059143 0.666333 -6.999926 0.966615 5.323310 8.064798 16.836889 2.299562 0.000000 0.000000 0.000000 -5.335072 0.480397 -6.206006 6.585182 -0.812186 9.508613 -3.594236 -11.895232 11.439355 0.000000 0.000000 0.000000 -2.523762 -0.014660 1.491230 9.715866 -1.588655 -25.971345 -1.510509 -1.755518 26.250036 3.374983 -1.689742 -18.099572 0.000000 0.000000 0.000000 -18.176232 -8.582188 4.463182 -49.896530 -37.855283 7.802761 -163.112969 -80.562800 170.842877 0.000000 0.000000 0.000000 5.437297 11.382585 4.053780 46.787219 25.245339 2.629574 -77.971051 48.757029 -35.271063 0.000000 0.000000 0.000000
-0.001609 0.921241 0.000853 -4.632193 -2.518016 -1.315630 11.521602 -0.040014 1.223781 -6.633774 0.918123 5.531074 8.097211 16.923951 2.596714 0.000000 0.000000 0.000000 -5.552650 0.442454 -5.692507 6.637780 -0.818346 9.658898 -3.429151 -11.633163 11.545402 0.000000 0.000000 0.000000 -2.761336 -0.013594 1.461917 9.948700 -1.684381 -25.682519 -1.788731 -1.601281 25.948719 3.771865 -1.917672 -18.411966 0.000000 0.000000 0.000000 -17.558431 -8.606572 4.399914 -49.699120 -37.116624 7.482178 -160.112541 -78.962100 166.738852 0.000000 0.000000 0.000000 5.539211 11.429606 4.068686 46.979004 24.356654 2.349704 -78.262634 49.209926 -35.865399 0.000000 0.000000 0.000000
-0.001577 0.922150 0.001804 -4.838453 -2.444785 -1.013677 11.687717 -0.051725 1.149322 -6.532427 0.888782 5.156386 8.056445 16.859282 2.882401 0.000000 0.000000 0.000000 -5.005623 0.417734 -5.009477 6.079329 -0.701565 8.002659 -3.395629 -11.614555 11.793862 0.000000 0.000000 0.000000 -3.237521 0.006457 0.923618 10.845809 -1.805388 -26.273148 -1.955289 -2.197119 26.601099 3.221785 -1.563702 -19.296275 0.000000 0.000000 0.000000 -17.607916 -7.756589 4.123257 -50.524458 -37.213137 7.650385 -154.996826 -78.150305 160.871159 0.000000 0.000000 0.000000 4.310640 11.722005 4.107268 47.647942 25.020719 2.585093 -77.090080 47.728604 -34.055813 0.000000 0.000000 0.000000
-0.001590 0.922468 0.002847 -4.702890 -2.458024 -1.184748 11.207641 -0.043243 1.418296 -5.953122 0.794774 5.130468 8.071361 16.896526 2.982844 0.000000 0.000000 0.000000 -4.710780 0.397713 -4.629880 5.293923 -0.566948 7.795427 -3.403993 -11.607862 11.672655 0.000000 0.000000 0.000000 -3.662437 0.016747 0.447105 10.804034 -1.828466 -26.035788 -2.231389 -2.650269 26.475492 3.661975 -1.902412 -19.605498 0.000000 0.000000 0.000000 -17.142763 -7.648464 4.138915 -51.265960 -37.085154 7.819143 -151.831776 -77.438269 157.072552 0.000000 0.000000 0.000000 4.054394 11.897095 4.131207 48.142190 25.359844 2.764232 -76.492732 46.538687 -32.904031 0.000000 0.000000 0.000000
